<svg version="1.1" id="Ebene_1" xmlns="http://www.w3.org/2000/svg" width="200" height="164" viewBox="0 0 200 164" xml:space="preserve"><g id="Page-1"><g id="jugend-debattiert-logo"><path id="Path" fill="#fff" d="M0 0h200v164H0z"/><path id="Shape" d="M128.9 127.6v2.5h-3.2v4.8c0 1.2 0 1.9.9 2.1.8.1 1.6 0 2.4-.1l.2 2.8c-.8.1-1.6.2-2.5.2-2.9-.1-4.2-1.5-4.2-3.9v-5.9h-1.7v-2.4h1.7V125h3.2v2.7h3.2zm9.6 0h-3.2v-2.7H132v2.7h-1.7v2.5h1.7v5.9c0 2.4 1.3 3.8 4.2 3.9.8 0 1.7-.1 2.5-.2l-.2-2.8c-.8.1-1.6.2-2.4.1-.9-.2-.9-.9-.9-2.1v-4.8h3.2l.1-2.5zm38.8 0h-3.2v-2.7h-3.2v2.7h-1.7v2.5h1.7v5.9c0 2.4 1.3 3.8 4.2 3.9.8 0 1.7-.1 2.5-.2l-.2-2.8c-.8.1-1.6.2-2.4.1-.9-.2-.9-.9-.9-2.1v-4.8h3.2v-2.5zm-9.2.2c-.7-.2-1.4-.3-2-.3-1 0-1.9.5-2.6 1.2v-1.1h-3.2v12.1h3.2v-8.2c.6-.8 1.6-1.3 2.6-1.2.5 0 1 0 1.5.1l.5-2.6zm-60.8-30.6H104v10.1c0 2-.2 2.8-2.2 2.8-.4 0-1.2-.1-1.8-.1l-.4 2.8c.8.1 1.6.2 2.3.2 4 0 5.2-1.8 5.2-5.3l.2-10.5zm3.6 3.5v8.1c0 .9 0 4.3 4.5 4.2 1 0 1.9-.4 2.6-1.1v.9h3.1v-12.1H118v8.8c-.8.7-1.8 1-2.8 1-.9 0-1.2-.4-1.2-2.3v-7.4l-3.1-.1zm24 .3c-1.7-.4-3.4-.5-5.1-.5-1.6-.1-3.1.5-4.2 1.6s-1.7 2.6-1.6 4.2c0 3.3 2.2 5.2 5.4 5.2.8 0 1.7-.2 2.4-.7v.6c0 1.7-.4 2.8-2.1 2.7-1.3 0-2.5-.2-3.8-.5l-.5 2.6c1.5.4 3 .6 4.5.6 3.4-.1 5-1.9 5-5V101zm-7.7 5.3c0-2 1-3.1 2.5-3.1.7 0 1.3.1 1.9.2v5.1c-.6.3-1.3.5-2 .5-1.5 0-2.4-.8-2.4-2.7zm16.5 4.1c-1.4 0-3.1-.4-3.1-2.6h7.2l.1-1.3c.1-3.5-1.1-6-4.8-6-4.2 0-5.6 3-5.6 6.2s1.1 6.4 6.1 6.4c1.4 0 2.7-.2 4-.6l-.4-2.6c-1.1.3-2.3.5-3.5.5zm-.7-7.5c1.1 0 1.9.7 1.9 2.5h-4.2c.2-1.4.8-2.5 2.3-2.5zm18.8 9.9v-7.7c0-1.7-.1-4.7-4.3-4.7-1.2 0-2.3.5-3.2 1.3v-1.1h-3.2v12.1h3.2v-8.4c.8-.7 1.8-1.1 2.9-1.2 1 0 1.3.4 1.3 2.3v7.3l3.3.1zm13.6 0V96.6h-3.2v4.3c-.7-.3-1.4-.4-2.1-.4-4.2 0-5.7 3.3-5.7 6.4-.1 3.9 2.4 6.2 5 6.2 1 0 2.1-.4 2.8-1.1v.9l3.2-.1zm-7.8-6c.1-2.3 1-3.6 2.8-3.6.6 0 1.3.1 1.9.4v5.9c-.6.5-1.3.8-2.1.8-1.6 0-2.7-1.2-2.6-3.5zm-87.9 32.9v-16.3h-3.2v4.3c-.7-.3-1.4-.4-2.1-.4-4.2 0-5.7 3.3-5.7 6.4-.1 3.9 2.4 6.2 5 6.2 1 0 2.1-.4 2.8-1.1v.9h3.2zm-7.9-6c.1-2.3 1-3.6 2.8-3.6.6 0 1.3.1 1.9.4v5.9c-.6.5-1.3.8-2.1.8-1.5-.1-2.7-1.3-2.6-3.5zm16.9 3.5c-1.4 0-3.1-.4-3.1-2.6h7.2l.1-1.3c.1-3.5-1.1-6-4.8-6-4.2 0-5.6 3-5.6 6.2s1.1 6.4 6.1 6.4c1.4 0 2.7-.2 4-.6l-.4-2.6c-1.2.4-2.4.5-3.5.5zm-.8-7.4c1.1 0 1.9.7 1.9 2.5h-4.2c.2-1.5.9-2.6 2.3-2.5zm7.8 9.5c1.6.4 3.2.6 4.9.6 4.2 0 5.9-3.1 5.9-6.4 0-3.4-1.8-6.3-5.4-6.2-.8 0-1.6.3-2.3.7v-4.7h-3.1v16zm7.8-5.7c0 2.3-.8 3.6-3 3.6-.6 0-1.1 0-1.7-.1v-6.4c.6-.3 1.2-.5 1.8-.5 2-.1 2.9 1.5 2.9 3.4zm4.9 2.9c.1 2 1.7 3.6 4.5 3.4 1.1 0 2.1-.5 2.8-1.4.5.7 1.3 1.3 3.6 1.2l.3-2.6c-.9 0-1.3-.3-1.4-1.4v-4.3c0-1.2-.1-4.2-5.1-4.1-1.3 0-2.7.2-3.9.5l.4 2.6c1.2-.2 2.4-.4 3.6-.4 1.5 0 1.9.1 2.1 1.4v.8l-2.3.1c-2.3.2-4.7 1.2-4.6 4.2zm3.1-.2c0-.7.2-1.4 1.6-1.5.6 0 1.5-.1 2.1-.1v2c-.6.4-1.3.7-2 .7-.9 0-1.6-.4-1.7-1.1zm29.5-12.5c0 .8.5 1.5 1.2 1.8.7.3 1.6.1 2.1-.4.6-.6.7-1.4.4-2.1-.3-.7-1-1.2-1.8-1.2-1.1 0-1.9.8-1.9 1.9zm3.5 15.9v-12h-3.2v12h3.2zm9.1-2.5c-1.4 0-3.1-.4-3.1-2.6h7.2l.1-1.3c.1-3.5-1.1-6-4.8-6-4.2 0-5.6 3-5.6 6.2s1.1 6.4 6.1 6.4c1.4 0 2.7-.2 4-.6l-.4-2.6c-1.2.4-2.4.5-3.5.5zm-.8-7.4c1.1 0 1.9.7 1.9 2.5h-4.2c.2-1.5.8-2.6 2.3-2.5z"/><path id="Shape_1_" d="M57.2 78h16.1v4.3H53V61.9h4.3V78zm50.1-54.7L53 35.8v21.8h4.3V39.2L103 28.6V78H77.6v4.3h29.7v-59z" fill="#c41238"/><path id="Shape_2_" d="M73.3 82.2h4.3V104l-54.3 12.5v-59H53v4.3H27.5v49.3l45.8-10.6V82.2zm0-20.3V78h4.3V57.6H57.2v4.3h16.1z" fill="#009ee3"/><path id="Shape_3_" d="M53 61.9v-4.3h4.3v4.3H53zM73.3 78v4.3h4.3V78h-4.3z" fill="#652b3b"/><path id="Path_1_" fill="none" d="M0 0h200v163H0z"/></g></g></svg>